<mxfile host="Electron" agent="Mozilla/5.0 (Windows NT 10.0; Win64; x64) AppleWebKit/537.36 (KHTML, like Gecko) draw.io/28.1.2 Chrome/138.0.7204.243 Electron/37.4.0 Safari/537.36" version="28.1.2">
  <diagram id="DN8xubNfB4hm2f4ed7bk" name="Seite-1">
    <mxGraphModel dx="2253" dy="841" grid="1" gridSize="10" guides="1" tooltips="1" connect="1" arrows="1" fold="1" page="1" pageScale="1" pageWidth="827" pageHeight="1169" math="0" shadow="0">
      <root>
        <mxCell id="0" />
        <mxCell id="1" parent="0" />
        <mxCell id="hCVu3PxVUp7euoXLVNNX-17" value="&lt;h1 style=&quot;margin-top: 0px;&quot;&gt;Pseudo Code&lt;/h1&gt;&lt;div&gt;&lt;br&gt;&lt;/div&gt;&lt;div&gt;START&lt;/div&gt;&lt;div&gt;&lt;span style=&quot;white-space: pre;&quot;&gt;&#x9;&lt;/span&gt;SET name: Ali&lt;br&gt;&lt;/div&gt;&lt;div&gt;&lt;span style=&quot;white-space: pre;&quot;&gt;&#x9;&lt;/span&gt;SET country: Iran&lt;/div&gt;&lt;div&gt;&lt;span style=&quot;white-space: pre;&quot;&gt;&#x9;&lt;/span&gt;SET age: 48&lt;/div&gt;&lt;div&gt;&lt;span style=&quot;white-space: pre;&quot;&gt;&#x9;&lt;/span&gt;SET result: NULL&lt;/div&gt;&lt;div&gt;&lt;br&gt;&lt;/div&gt;&lt;div&gt;&lt;span style=&quot;white-space: pre;&quot;&gt;&#x9;&lt;/span&gt;result=Hello my name is + name + and I am + age + years old and &lt;span style=&quot;white-space: pre;&quot;&gt;&#x9;&lt;/span&gt;I come from + country&lt;/div&gt;&lt;div&gt;&lt;span style=&quot;white-space: pre;&quot;&gt;&#x9;&lt;/span&gt;PRINT result&lt;br&gt;&lt;/div&gt;&lt;div&gt;END&lt;/div&gt;" style="text;html=1;whiteSpace=wrap;overflow=hidden;rounded=0;" parent="1" vertex="1">
          <mxGeometry x="550" y="40" width="260" height="230" as="geometry" />
        </mxCell>
        <mxCell id="hCVu3PxVUp7euoXLVNNX-29" value="" style="group" parent="1" vertex="1" connectable="0">
          <mxGeometry x="-200" y="370" width="660" height="660" as="geometry" />
        </mxCell>
        <mxCell id="hCVu3PxVUp7euoXLVNNX-4" value="" style="whiteSpace=wrap;html=1;aspect=fixed;" parent="hCVu3PxVUp7euoXLVNNX-29" vertex="1">
          <mxGeometry width="660" height="660" as="geometry" />
        </mxCell>
        <mxCell id="hCVu3PxVUp7euoXLVNNX-6" value="" style="edgeStyle=orthogonalEdgeStyle;rounded=0;orthogonalLoop=1;jettySize=auto;html=1;" parent="hCVu3PxVUp7euoXLVNNX-29" source="hCVu3PxVUp7euoXLVNNX-1" target="hCVu3PxVUp7euoXLVNNX-2" edge="1">
          <mxGeometry relative="1" as="geometry" />
        </mxCell>
        <mxCell id="hCVu3PxVUp7euoXLVNNX-1" value="Start" style="ellipse;whiteSpace=wrap;html=1;" parent="hCVu3PxVUp7euoXLVNNX-29" vertex="1">
          <mxGeometry x="263.51351351351354" y="44.5945945945946" width="97.2972972972973" height="71.35135135135135" as="geometry" />
        </mxCell>
        <mxCell id="hCVu3PxVUp7euoXLVNNX-20" value="" style="edgeStyle=orthogonalEdgeStyle;rounded=0;orthogonalLoop=1;jettySize=auto;html=1;" parent="hCVu3PxVUp7euoXLVNNX-29" source="hCVu3PxVUp7euoXLVNNX-2" target="hCVu3PxVUp7euoXLVNNX-19" edge="1">
          <mxGeometry relative="1" as="geometry" />
        </mxCell>
        <mxCell id="hCVu3PxVUp7euoXLVNNX-2" value="input: &lt;font style=&quot;color: rgb(0, 127, 255);&quot;&gt;name, country, age&lt;/font&gt;" style="shape=parallelogram;perimeter=parallelogramPerimeter;whiteSpace=wrap;html=1;fixedSize=1;" parent="hCVu3PxVUp7euoXLVNNX-29" vertex="1">
          <mxGeometry x="221.62" y="142.7" width="181.08" height="57.3" as="geometry" />
        </mxCell>
        <mxCell id="hCVu3PxVUp7euoXLVNNX-5" value="Text Generator Process&lt;div&gt;&lt;br&gt;&lt;/div&gt;" style="text;html=1;whiteSpace=wrap;overflow=hidden;rounded=0;" parent="hCVu3PxVUp7euoXLVNNX-29" vertex="1">
          <mxGeometry x="32.432432432432435" y="26.756756756756758" width="145.94594594594597" height="35.67567567567568" as="geometry" />
        </mxCell>
        <mxCell id="hCVu3PxVUp7euoXLVNNX-26" value="" style="edgeStyle=orthogonalEdgeStyle;rounded=0;orthogonalLoop=1;jettySize=auto;html=1;" parent="hCVu3PxVUp7euoXLVNNX-29" source="hCVu3PxVUp7euoXLVNNX-11" target="hCVu3PxVUp7euoXLVNNX-25" edge="1">
          <mxGeometry relative="1" as="geometry" />
        </mxCell>
        <mxCell id="hCVu3PxVUp7euoXLVNNX-11" value="&lt;font style=&quot;color: rgb(0, 127, 255);&quot;&gt;result&lt;/font&gt;&lt;span style=&quot;text-align: left;&quot;&gt;=Hello my name is + &lt;font style=&quot;color: rgb(0, 127, 255);&quot;&gt;name &lt;/font&gt;+ and I am + &lt;font style=&quot;color: rgb(0, 127, 255);&quot;&gt;age &lt;/font&gt;+ years old and&amp;nbsp;&lt;/span&gt;&lt;span style=&quot;text-align: left; white-space: pre;&quot;&gt;&#x9;&lt;/span&gt;&lt;span style=&quot;text-align: left;&quot;&gt;I come from + &lt;font style=&quot;color: rgb(0, 127, 255);&quot;&gt;country&lt;/font&gt;&lt;/span&gt;" style="whiteSpace=wrap;html=1;" parent="hCVu3PxVUp7euoXLVNNX-29" vertex="1">
          <mxGeometry x="212.83783783783784" y="387.97297297297297" width="198.64864864864865" height="115.94594594594595" as="geometry" />
        </mxCell>
        <mxCell id="hCVu3PxVUp7euoXLVNNX-13" value="Print:error" style="whiteSpace=wrap;html=1;" parent="hCVu3PxVUp7euoXLVNNX-29" vertex="1">
          <mxGeometry x="429.72972972972974" y="263.1081081081081" width="97.2972972972973" height="53.513513513513516" as="geometry" />
        </mxCell>
        <mxCell id="hCVu3PxVUp7euoXLVNNX-21" value="" style="edgeStyle=orthogonalEdgeStyle;rounded=0;orthogonalLoop=1;jettySize=auto;html=1;" parent="hCVu3PxVUp7euoXLVNNX-29" source="hCVu3PxVUp7euoXLVNNX-19" target="hCVu3PxVUp7euoXLVNNX-13" edge="1">
          <mxGeometry relative="1" as="geometry" />
        </mxCell>
        <mxCell id="hCVu3PxVUp7euoXLVNNX-23" value="No" style="edgeLabel;html=1;align=center;verticalAlign=middle;resizable=0;points=[];" parent="hCVu3PxVUp7euoXLVNNX-21" vertex="1" connectable="0">
          <mxGeometry x="-0.0595" y="-1" relative="1" as="geometry">
            <mxPoint x="1" as="offset" />
          </mxGeometry>
        </mxCell>
        <mxCell id="hCVu3PxVUp7euoXLVNNX-22" value="" style="edgeStyle=orthogonalEdgeStyle;rounded=0;orthogonalLoop=1;jettySize=auto;html=1;" parent="hCVu3PxVUp7euoXLVNNX-29" source="hCVu3PxVUp7euoXLVNNX-19" target="hCVu3PxVUp7euoXLVNNX-11" edge="1">
          <mxGeometry relative="1" as="geometry" />
        </mxCell>
        <mxCell id="hCVu3PxVUp7euoXLVNNX-24" value="Yes" style="edgeLabel;html=1;align=center;verticalAlign=middle;resizable=0;points=[];" parent="hCVu3PxVUp7euoXLVNNX-22" vertex="1" connectable="0">
          <mxGeometry x="-0.2" y="1" relative="1" as="geometry">
            <mxPoint as="offset" />
          </mxGeometry>
        </mxCell>
        <mxCell id="hCVu3PxVUp7euoXLVNNX-19" value="all input exists" style="rhombus;whiteSpace=wrap;html=1;" parent="hCVu3PxVUp7euoXLVNNX-29" vertex="1">
          <mxGeometry x="261.4864864864865" y="231.8918918918919" width="101.35135135135135" height="115.94594594594595" as="geometry" />
        </mxCell>
        <mxCell id="hCVu3PxVUp7euoXLVNNX-28" value="" style="edgeStyle=orthogonalEdgeStyle;rounded=0;orthogonalLoop=1;jettySize=auto;html=1;" parent="hCVu3PxVUp7euoXLVNNX-29" source="hCVu3PxVUp7euoXLVNNX-25" target="hCVu3PxVUp7euoXLVNNX-27" edge="1">
          <mxGeometry relative="1" as="geometry" />
        </mxCell>
        <mxCell id="hCVu3PxVUp7euoXLVNNX-25" value="Print: &lt;font style=&quot;color: rgb(0, 127, 255);&quot;&gt;result&lt;/font&gt;" style="whiteSpace=wrap;html=1;" parent="hCVu3PxVUp7euoXLVNNX-29" vertex="1">
          <mxGeometry x="263.51351351351354" y="517.2972972972973" width="97.2972972972973" height="53.513513513513516" as="geometry" />
        </mxCell>
        <mxCell id="hCVu3PxVUp7euoXLVNNX-27" value="End" style="ellipse;whiteSpace=wrap;html=1;" parent="hCVu3PxVUp7euoXLVNNX-29" vertex="1">
          <mxGeometry x="208.7837837837838" y="588.6486486486486" width="206.75675675675677" height="71.35135135135135" as="geometry" />
        </mxCell>
        <mxCell id="HI8FhXk350ZClnf28Xaq-1" value="" style="edgeStyle=orthogonalEdgeStyle;rounded=0;orthogonalLoop=1;jettySize=auto;html=1;" edge="1" parent="1" source="HI8FhXk350ZClnf28Xaq-2">
          <mxGeometry relative="1" as="geometry">
            <mxPoint x="-382.5" y="120" as="targetPoint" />
          </mxGeometry>
        </mxCell>
        <mxCell id="HI8FhXk350ZClnf28Xaq-2" value="Start" style="ellipse;whiteSpace=wrap;html=1;" vertex="1" parent="1">
          <mxGeometry x="-442.5" y="10" width="120" height="80" as="geometry" />
        </mxCell>
        <mxCell id="HI8FhXk350ZClnf28Xaq-3" value="" style="edgeStyle=orthogonalEdgeStyle;rounded=0;orthogonalLoop=1;jettySize=auto;html=1;" edge="1" parent="1" source="HI8FhXk350ZClnf28Xaq-4" target="HI8FhXk350ZClnf28Xaq-12">
          <mxGeometry relative="1" as="geometry" />
        </mxCell>
        <mxCell id="HI8FhXk350ZClnf28Xaq-4" value="&lt;font style=&quot;color: rgb(0, 127, 255);&quot;&gt;result&lt;/font&gt;= Hello my name is &quot;&lt;font style=&quot;color: rgb(0, 127, 255);&quot;&gt;name&lt;/font&gt;&quot; and I am &quot;&lt;font style=&quot;color: rgb(0, 127, 255);&quot;&gt;age&lt;/font&gt;&quot; years old und I come from &quot;&lt;font style=&quot;color: rgb(0, 127, 255);&quot;&gt;country&lt;/font&gt;&quot;" style="shape=process;whiteSpace=wrap;html=1;backgroundOutline=1;" vertex="1" parent="1">
          <mxGeometry x="-475" y="260" width="185" height="120" as="geometry" />
        </mxCell>
        <mxCell id="HI8FhXk350ZClnf28Xaq-5" style="edgeStyle=orthogonalEdgeStyle;rounded=0;orthogonalLoop=1;jettySize=auto;html=1;exitX=0.5;exitY=1;exitDx=0;exitDy=0;" edge="1" parent="1" source="HI8FhXk350ZClnf28Xaq-7">
          <mxGeometry relative="1" as="geometry">
            <mxPoint x="-382.5" y="180" as="targetPoint" />
          </mxGeometry>
        </mxCell>
        <mxCell id="HI8FhXk350ZClnf28Xaq-6" value="" style="edgeStyle=orthogonalEdgeStyle;rounded=0;orthogonalLoop=1;jettySize=auto;html=1;" edge="1" parent="1" source="HI8FhXk350ZClnf28Xaq-7" target="HI8FhXk350ZClnf28Xaq-4">
          <mxGeometry relative="1" as="geometry" />
        </mxCell>
        <mxCell id="HI8FhXk350ZClnf28Xaq-7" value="defined variablen: &lt;font style=&quot;color: rgb(0, 127, 255);&quot;&gt;name&lt;/font&gt;:&quot;Ali&quot;&lt;div&gt;&lt;font style=&quot;color: rgb(51, 153, 255);&quot;&gt;country&lt;/font&gt;:&quot;iran&quot;&lt;/div&gt;&lt;div&gt;&lt;font style=&quot;color: rgb(0, 127, 255);&quot;&gt;age&lt;/font&gt;:&quot;48&quot;&lt;/div&gt;&lt;div&gt;&lt;font style=&quot;color: rgb(0, 127, 255);&quot;&gt;result&lt;/font&gt;: NULL&lt;/div&gt;" style="shape=process;whiteSpace=wrap;html=1;backgroundOutline=1;" vertex="1" parent="1">
          <mxGeometry x="-462.5" y="120" width="160" height="90" as="geometry" />
        </mxCell>
        <mxCell id="HI8FhXk350ZClnf28Xaq-8" value="Process: means when your app shall do somehting itself" style="shape=document;whiteSpace=wrap;html=1;boundedLbl=1;" vertex="1" parent="1">
          <mxGeometry x="-762.5" y="120" width="120" height="80" as="geometry" />
        </mxCell>
        <mxCell id="HI8FhXk350ZClnf28Xaq-9" value="" style="shape=flexArrow;endArrow=classic;html=1;rounded=0;" edge="1" parent="1">
          <mxGeometry width="50" height="50" relative="1" as="geometry">
            <mxPoint x="-602.5" y="150" as="sourcePoint" />
            <mxPoint x="-522.5" y="150" as="targetPoint" />
          </mxGeometry>
        </mxCell>
        <mxCell id="HI8FhXk350ZClnf28Xaq-10" value="" style="edgeStyle=orthogonalEdgeStyle;rounded=0;orthogonalLoop=1;jettySize=auto;html=1;" edge="1" parent="1" source="HI8FhXk350ZClnf28Xaq-12" target="HI8FhXk350ZClnf28Xaq-13">
          <mxGeometry relative="1" as="geometry" />
        </mxCell>
        <mxCell id="HI8FhXk350ZClnf28Xaq-11" value="" style="edgeStyle=orthogonalEdgeStyle;rounded=0;orthogonalLoop=1;jettySize=auto;html=1;" edge="1" parent="1" source="HI8FhXk350ZClnf28Xaq-12" target="HI8FhXk350ZClnf28Xaq-13">
          <mxGeometry relative="1" as="geometry" />
        </mxCell>
        <mxCell id="HI8FhXk350ZClnf28Xaq-12" value="print: &lt;font style=&quot;color: rgb(0, 127, 255);&quot;&gt;result&lt;/font&gt;" style="rounded=1;whiteSpace=wrap;html=1;" vertex="1" parent="1">
          <mxGeometry x="-442.5" y="440" width="120" height="60" as="geometry" />
        </mxCell>
        <mxCell id="HI8FhXk350ZClnf28Xaq-13" value="End" style="ellipse;whiteSpace=wrap;html=1;rounded=1;" vertex="1" parent="1">
          <mxGeometry x="-447.5" y="555" width="130" height="60" as="geometry" />
        </mxCell>
      </root>
    </mxGraphModel>
  </diagram>
</mxfile>
